<?xml version="1.0" standalone="no"?>
<!DOCTYPE svg PUBLIC "-//W3C//DTD SVG 20010904//EN"
 "http://www.w3.org/TR/2001/REC-SVG-20010904/DTD/svg10.dtd">
<svg version="1.0" xmlns="http://www.w3.org/2000/svg"
 width="500.000000pt" height="500.000000pt" viewBox="0 0 500.000000 500.000000"
 preserveAspectRatio="xMidYMid meet">

<g transform="translate(0.000000,500.000000) scale(0.100000,-0.100000)"
fill="#000000" stroke="none">
<path d="M1676 3728 c-9 -29 -134 -543 -132 -544 0 -1 19 -4 41 -7 l40 -6 39
147 c21 81 41 156 45 166 6 16 21 -1 82 -90 41 -60 94 -139 118 -176 24 -38
47 -68 51 -68 4 0 10 10 13 23 2 12 23 85 45 162 42 148 87 311 98 358 6 27 5
27 -42 27 l-49 0 -32 -133 c-18 -72 -38 -149 -44 -171 l-11 -38 -45 68 c-71
108 -204 294 -209 294 -3 0 -6 -6 -8 -12z"/>
<path d="M2181 3640 c-11 -41 -27 -100 -35 -130 -7 -30 -32 -119 -55 -197 -23
-78 -41 -144 -41 -147 0 -9 62 -15 207 -19 l142 -4 15 45 c9 24 13 48 10 53
-3 5 -62 9 -131 9 -115 0 -125 1 -120 18 3 9 11 38 18 65 l13 47 116 0 115 0
13 40 c6 22 12 44 12 50 0 6 -42 10 -110 10 -73 0 -110 4 -110 11 0 6 7 36 16
66 l16 55 129 -4 129 -4 14 50 c8 28 14 51 13 52 -1 1 -82 4 -179 6 l-177 3
-20 -75z"/>
<path d="M2580 3685 c0 -9 7 -104 15 -213 8 -108 16 -232 17 -275 l3 -79 55
69 c168 211 205 254 208 245 1 -5 8 -79 15 -164 l12 -156 102 142 c191 264
303 423 303 430 0 3 -26 6 -57 6 l-58 0 -88 -144 c-48 -79 -93 -149 -101 -155
-11 -9 -15 14 -25 127 -17 195 -12 182 -73 182 l-51 0 6 -56 6 -55 -77 -112
-77 -112 -9 168 -9 167 -58 0 c-46 0 -59 -3 -59 -15z"/>
<path d="M3450 3681 c-81 -26 -152 -94 -170 -160 -20 -74 0 -104 104 -163 73
-41 83 -56 67 -96 -24 -56 -148 -70 -211 -24 l-29 22 -36 -42 -36 -42 23 -18
c38 -29 89 -43 163 -42 89 0 167 33 213 91 77 98 70 170 -22 218 -118 63 -138
94 -91 140 20 20 34 25 77 25 30 0 71 -9 95 -19 l41 -19 31 38 c17 22 31 41
31 44 0 3 -19 15 -41 27 -45 23 -166 35 -209 20z"/>
<path d="M4080 3460 c0 -11 2 -20 4 -20 2 0 6 9 9 20 3 11 1 20 -4 20 -5 0 -9
-9 -9 -20z"/>
<path d="M4021 3369 c-6 -18 -9 -34 -7 -36 2 -2 9 10 15 28 6 18 9 34 7 36 -2
2 -9 -10 -15 -28z"/>
<path d="M4132 3173 c-120 -353 -290 -796 -402 -1048 -10 -22 -38 -87 -63
-145 -61 -142 -91 -206 -222 -475 -86 -177 -120 -238 -149 -263 -72 -63 -74
-37 -6 98 28 55 50 106 50 115 0 8 4 15 10 15 23 0 270 541 270 590 0 10 7 23
15 30 9 8 13 21 9 32 -3 11 5 41 19 71 14 29 37 84 52 122 24 62 59 137 92
200 18 35 30 67 64 175 17 58 36 109 41 114 4 6 8 18 8 28 0 10 4 18 9 18 5 0
11 22 15 48 3 26 13 58 22 71 21 29 53 158 46 184 -4 15 -2 18 8 12 9 -5 11
-4 6 4 -8 13 2 53 12 47 4 -2 7 10 8 27 0 18 3 46 8 62 6 24 2 22 -17 -14 -15
-28 -26 -39 -29 -30 -3 8 -1 22 4 32 5 10 7 21 4 24 -3 3 -10 -7 -17 -23 -6
-16 -44 -117 -84 -224 -40 -107 -103 -267 -140 -355 -36 -88 -86 -207 -110
-265 -24 -58 -50 -118 -58 -135 -9 -16 -36 -75 -60 -130 -56 -123 -264 -546
-351 -713 -45 -87 -71 -151 -87 -215 -34 -140 -29 -315 10 -375 4 -8 27 -16
50 -19 38 -5 44 -3 79 34 20 21 50 66 66 98 16 33 55 106 87 162 78 136 258
523 278 597 5 21 16 46 24 55 8 9 24 43 37 76 12 33 30 78 40 100 10 22 21 54
24 72 4 17 14 37 22 44 8 6 14 20 14 31 0 10 14 51 30 90 17 38 30 85 30 103
0 30 34 123 49 135 4 3 13 24 20 48 6 24 19 46 27 49 8 3 14 16 14 29 0 13 25
90 56 171 30 81 59 162 63 179 5 18 16 42 25 55 9 13 16 36 16 50 0 15 4 29
10 31 15 5 60 168 60 221 0 48 -13 87 -29 87 -5 0 -41 -93 -79 -207z"/>
<path d="M1320 2964 c-16 -40 -14 -42 58 -48 332 -30 2163 -89 2182 -70 5 5
12 21 15 35 l7 27 -144 6 c-79 3 -350 10 -603 16 -445 10 -942 29 -1305 50
-96 5 -181 10 -188 10 -7 0 -17 -12 -22 -26z"/>
<path d="M897 1786 c-13 -28 -14 -38 -4 -41 18 -6 452 -43 692 -60 386 -26
1076 -55 1317 -55 l108 0 19 39 20 38 -277 7 c-644 16 -1184 46 -1792 102
l-65 6 -18 -36z"/>
<path d="M837 1644 c-10 -20 -16 -38 -14 -40 6 -6 252 -32 507 -53 412 -35
1150 -71 1462 -71 l138 0 20 40 20 40 -87 0 c-467 1 -1706 72 -1993 116 -33 5
-37 2 -53 -32z"/>
<path d="M797 1523 c-3 -4 -8 -24 -12 -44 l-7 -36 184 -21 c358 -42 672 -69
1073 -92 228 -13 656 -30 756 -30 l77 0 11 44 c6 25 11 47 11 49 0 2 -111 7
-247 11 -627 17 -1521 77 -1804 122 -21 3 -39 2 -42 -3z"/>
<path d="M785 1299 c4 -19 10 -37 14 -40 16 -16 646 -99 1001 -133 295 -28
602 -49 883 -62 l147 -6 0 49 0 50 -227 7 c-289 8 -532 25 -998 67 -206 19
-735 82 -799 96 -28 6 -28 5 -21 -28z"/>
<path d="M850 1153 c1 -19 38 -52 70 -61 91 -28 334 -73 360 -67 20 4 37 1 52
-9 17 -13 50 -16 146 -16 133 0 158 14 44 25 -116 11 -212 32 -232 50 -15 13
-29 16 -57 12 -21 -4 -56 -2 -78 4 -122 31 -249 57 -261 52 -8 -3 -14 0 -14 6
0 6 -7 11 -15 11 -8 0 -15 -3 -15 -7z m57 -29 c-3 -3 -12 -4 -19 -1 -8 3 -5 6
6 6 11 1 17 -2 13 -5z"/>
<path d="M1711 974 c0 -11 3 -14 6 -6 3 7 2 16 -1 19 -3 4 -6 -2 -5 -13z"/>
<path d="M1745 930 c3 -5 8 -10 11 -10 2 0 4 5 4 10 0 6 -5 10 -11 10 -5 0 -7
-4 -4 -10z"/>
<path d="M1870 916 c0 -2 7 -7 16 -10 8 -3 12 -2 9 4 -6 10 -25 14 -25 6z"/>
<path d="M2548 828 c-11 -6 -10 -8 0 -8 7 0 11 -4 8 -9 -7 -11 105 -24 140
-15 17 4 25 3 21 -3 -4 -6 23 -12 71 -16 43 -3 86 -9 96 -13 16 -6 15 -2 -5
29 -16 24 -25 31 -27 21 -3 -11 -7 -12 -16 -4 -29 23 -257 38 -288 18z"/>
<path d="M2483 813 c9 -2 25 -2 35 0 9 3 1 5 -18 5 -19 0 -27 -2 -17 -5z"/>
</g>
</svg>
